<?xml version="1.0" standalone="no"?><!DOCTYPE svg PUBLIC "-//W3C//DTD SVG 1.1//EN" "http://www.w3.org/Graphics/SVG/1.1/DTD/svg11.dtd"><svg t="1760928854213" class="icon" viewBox="0 0 1024 1024" version="1.1" xmlns="http://www.w3.org/2000/svg" p-id="15978" xmlns:xlink="http://www.w3.org/1999/xlink" width="200" height="200"><path d="M821.12 573.632H489.216a41.152 41.152 0 1 1 0-82.368h193.024l-17.664-53.056a41.152 41.152 0 0 1 78.144-26.048l21.44 64.32a41.088 41.088 0 0 1 2.112 14.72h108.096a40.96 40.96 0 0 1 1.664 0h84.992a41.152 41.152 0 1 1 0 82.432h-53.888c-2.112 7.232-4.48 15.296-7.232 24-13.12 41.6-29.504 83.264-49.536 122.496-23.04 45.12-49.6 84.16-80 115.264a552.896 552.896 0 0 1-3.584 3.584c15.68 10.432 33.024 20.864 51.712 31.36 34.304 19.136 71.296 37.184 108.352 53.568 22.208 9.792 39.36 16.768 48.896 20.48a41.152 41.152 0 0 1-29.44 76.864 1462.912 1462.912 0 0 1-52.736-22.016 1387.52 1387.52 0 0 1-115.264-57.024 823.936 823.936 0 0 1-75.328-47.104 979.84 979.84 0 0 1-26.816 20.416 1293.632 1293.632 0 0 1-153.6 96.256c-6.976 3.776-12.032 6.4-14.848 7.808a41.152 41.152 0 0 1-36.992-73.6 1227.136 1227.136 0 0 0 48.64-26.752 1212.864 1212.864 0 0 0 120.576-79.424 429.056 429.056 0 0 1-37.632-48.512 549.696 549.696 0 0 1-66.944-140.352 41.152 41.152 0 1 1 79.232-22.592 468.48 468.48 0 0 0 56.128 117.12c10.048 14.912 20.736 28.672 32 40.96 3.008-2.88 5.952-5.76 8.768-8.704 24.064-24.512 45.952-56.832 65.536-95.104 17.6-34.496 32.32-71.68 44.16-108.992z" fill="#1B5580" p-id="15979"></path><path d="M510.976 592.192H193.024l-62.912 136.32c-15.68 33.92-56.064 48.832-90.24 33.344a67.264 67.264 0 0 1-33.664-89.472l80.448-174.4 0.832-1.856L289.664 40.32c23.808-53.76 100.864-53.76 124.672 0l202.24 455.808 0.768 1.856 80.448 174.4c15.68 33.92 0.64 73.984-33.6 89.472a68.352 68.352 0 0 1-90.24-33.28l-62.976-136.384zM448 448L352 256 256 448h192z" fill="#2E99E6" p-id="15980"></path></svg>