<?xml version="1.0" standalone="no"?><!DOCTYPE svg PUBLIC "-//W3C//DTD SVG 1.1//EN" "http://www.w3.org/Graphics/SVG/1.1/DTD/svg11.dtd"><svg t="1760928885615" class="icon" viewBox="0 0 1024 1024" version="1.1" xmlns="http://www.w3.org/2000/svg" p-id="17033" xmlns:xlink="http://www.w3.org/1999/xlink" width="200" height="200"><path d="M642.844444 865.678222l-42.097777 91.932445a45.511111 45.511111 0 0 1-82.716445-37.888l53.76-117.532445a45.283556 45.283556 0 0 1 0.568889-1.251555l134.997333-307.2a45.511111 45.511111 0 0 1 83.342223 0l135.054222 307.2a45.283556 45.283556 0 0 1 0.568889 1.251555l53.76 117.532445a45.511111 45.511111 0 0 1-82.830222 37.888l-41.984-91.932445H642.844444z m171.918223-91.022222l-65.706667-149.560889-65.763556 149.560889h131.470223z" fill="#1B5580" p-id="17034"></path><path d="M452.209778 249.344H85.333333a45.511111 45.511111 0 1 1 0-91.022222h213.390223l-19.512889-58.595556a45.511111 45.511111 0 1 1 86.357333-28.785778l23.665778 71.111112a45.397333 45.397333 0 0 1 2.275555 16.270222h215.267556a45.511111 45.511111 0 1 1 0 91.022222H547.271111c-2.275556 8.078222-4.949333 16.952889-7.964444 26.567111a882.460444 882.460444 0 0 1-54.784 135.395556c-25.543111 49.891556-54.784 93.013333-88.462223 127.431111l-3.982222 3.982222c17.408 11.434667 36.522667 22.983111 57.173334 34.531556 37.944889 21.219556 78.848 41.187556 119.751111 59.278222 24.576 10.808889 43.52 18.545778 54.044444 22.584889a45.511111 45.511111 0 1 1-32.540444 84.992c-3.072-1.137778-8.647111-3.413333-16.327111-6.485334-12.686222-5.176889-26.737778-11.150222-41.927112-17.863111a1533.553778 1533.553778 0 0 1-127.431111-63.032889c-30.606222-17.066667-58.481778-34.474667-83.171555-51.996444-9.557333 7.509333-19.456 15.018667-29.639111 22.528a1429.788444 1429.788444 0 0 1-127.658667 82.887111 1446.912 1446.912 0 0 1-58.595556 32.142222 45.511111 45.511111 0 1 1-40.846222-81.351111 1356.231111 1356.231111 0 0 0 53.816889-29.582222 1340.529778 1340.529778 0 0 0 133.176889-87.779556 474.225778 474.225778 0 0 1-41.528889-53.589333 607.516444 607.516444 0 0 1-56.149333-105.756444 488.391111 488.391111 0 0 1-17.863111-49.322667 45.511111 45.511111 0 0 1 87.552-25.031111 517.802667 517.802667 0 0 0 62.065777 129.422222c11.093333 16.497778 22.869333 31.687111 35.384889 45.340444a537.031111 537.031111 0 0 0 9.671111-9.671111c26.567111-27.079111 50.801778-62.805333 72.419556-105.130666 19.456-38.115556 35.669333-79.246222 48.753778-120.490667z" fill="#2E99E6" p-id="17035"></path></svg>